<svg width="300" height="400" viewBox="0 0 300 400" id="svg2" version="1.1" xmlns="http://www.w3.org/2000/svg" xmlns:svg="http://www.w3.org/2000/svg" xmlns:rdf="http://www.w3.org/1999/02/22-rdf-syntax-ns#" xmlns:cc="http://creativecommons.org/ns#" xmlns:dc="http://purl.org/dc/elements/1.1/" xmlns:xlink="http://www.w3.org/1999/xlink"><defs id="defs4"><linearGradient id="linearGradient10055"><stop style="stop-color:#000000;stop-opacity:1;" offset="0" id="stop10057"/></linearGradient><marker orient="auto" refY="0" refX="0" id="Arrow1Lstart" style="overflow:visible"><path id="path4978" d="M 0,0 5,-5 -12.5,0 5,5 0,0 Z" style="fill:#000000;fill-opacity:1;fill-rule:evenodd;stroke:#ff5c00;stroke-width:1pt;stroke-opacity:1" transform="matrix(0.8,0,0,0.8,10,0)"/></marker><clipPath clipPathUnits="userSpaceOnUse" id="clipPath4243"><circle style="opacity:1;fill:#000000;fill-opacity:0.29670332;fill-rule:nonzero;stroke:#000000;stroke-width:19.13299942;stroke-linecap:butt;stroke-linejoin:round;stroke-miterlimit:4;stroke-dasharray:none;stroke-dashoffset:0;stroke-opacity:1" id="circle4245" cx="-264.65997" cy="-198.20665" r="293.95438"/></clipPath><clipPath clipPathUnits="userSpaceOnUse" id="clipPath7847"><ellipse style="opacity:1;fill:#822600;fill-opacity:1;fill-rule:nonzero;stroke:none;stroke-width:12;stroke-linecap:round;stroke-linejoin:round;stroke-miterlimit:4;stroke-dasharray:none;stroke-dashoffset:0;stroke-opacity:1" id="ellipse7849" cx="394" cy="552.36218" rx="349.49533" ry="216"/></clipPath><clipPath clipPathUnits="userSpaceOnUse" id="clipPath4243-1"><circle style="opacity:1;fill:#000000;fill-opacity:0.29670332;fill-rule:nonzero;stroke:#000000;stroke-width:19.13299942;stroke-linecap:butt;stroke-linejoin:round;stroke-miterlimit:4;stroke-dasharray:none;stroke-dashoffset:0;stroke-opacity:1" id="circle4245-4" cx="-264.65997" cy="-198.20665" r="293.95438"/></clipPath><clipPath clipPathUnits="userSpaceOnUse" id="clipPath7876"><circle style="opacity:1;fill:#000000;fill-opacity:0.29670332;fill-rule:nonzero;stroke:#000000;stroke-width:19.13299942;stroke-linecap:butt;stroke-linejoin:round;stroke-miterlimit:4;stroke-dasharray:none;stroke-dashoffset:0;stroke-opacity:1" id="circle7878" cx="-264.65997" cy="-198.20665" r="293.95438"/></clipPath><clipPath clipPathUnits="userSpaceOnUse" id="clipPath14693"><rect style="opacity:1;fill:#a53c3c;fill-opacity:1;fill-rule:nonzero;stroke:none;stroke-width:8;stroke-linecap:round;stroke-linejoin:round;stroke-miterlimit:4;stroke-dasharray:none;stroke-dashoffset:0;stroke-opacity:1" id="rect14695" width="131.78395" height="168.82127" x="-332.59583" y="383.49765" rx="1.2551664" ry="3.7514515" transform="matrix(0.99939083,-0.03489951,0.03489951,0.99939083,0,0)"/></clipPath><clipPath clipPathUnits="userSpaceOnUse" id="clipPath14952"><ellipse style="opacity:1;fill:#a53c3c;fill-opacity:1;fill-rule:nonzero;stroke:none;stroke-width:7;stroke-linecap:round;stroke-linejoin:round;stroke-miterlimit:4;stroke-dasharray:none;stroke-dashoffset:0;stroke-opacity:1" id="ellipse14954" cx="-271.34384" cy="647.25604" rx="69.057365" ry="116.91089" transform="matrix(0.99939083,-0.03489951,0.03489951,0.99939083,0,0)"/></clipPath><pattern y="0" x="0" height="6" width="6" patternUnits="userSpaceOnUse" id="EMFhbasepattern"/><filter colorInterpolationFilters="sRGB" id="filter4198"><feGaussianBlur stdDeviation="2.51 2.51" result="blur" id="feGaussianBlur4200"/></filter><mask maskUnits="userSpaceOnUse" id="mask4222"><rect ry="40" y="652.28351" x="0" height="400.77808" width="300.05896" id="rect4224" style="opacity:1;fill:#ff3737;fill-opacity:1;fill-rule:nonzero;stroke:none;stroke-width:10;stroke-linecap:butt;stroke-linejoin:round;stroke-miterlimit:4;stroke-dasharray:none;stroke-dashoffset:0;stroke-opacity:1"/></mask><filter colorInterpolationFilters="sRGB" id="filter4198-0"><feGaussianBlur stdDeviation="2.51 2.51" result="blur" id="feGaussianBlur4200-5"/></filter><mask maskUnits="userSpaceOnUse" id="mask4216"><rect ry="40" y="-1325.6035" x="-451.93805" height="400.77808" width="300.05896" id="rect4218" style="opacity:1;fill:#ff3737;fill-opacity:1;fill-rule:nonzero;stroke:none;stroke-width:10;stroke-linecap:butt;stroke-linejoin:round;stroke-miterlimit:4;stroke-dasharray:none;stroke-dashoffset:0;stroke-opacity:1" transform="scale(-1,-1)"/></mask><filter colorInterpolationFilters="sRGB" id="filter4242"><feGaussianBlur stdDeviation="2.51 2.51" result="blur" id="feGaussianBlur4244"/></filter><mask maskUnits="userSpaceOnUse" id="mask4222-0"><rect ry="40" y="652.28351" x="0" height="400.77808" width="300.05896" id="rect4224-8" style="opacity:1;fill:#ff3737;fill-opacity:1;fill-rule:nonzero;stroke:none;stroke-width:10;stroke-linecap:butt;stroke-linejoin:round;stroke-miterlimit:4;stroke-dasharray:none;stroke-dashoffset:0;stroke-opacity:1"/></mask><filter colorInterpolationFilters="sRGB" id="filter4198-8" x="-0.024915433" y="-0.054278337" width="1.0498309" height="1.1085567"><feGaussianBlur stdDeviation="2.51 2.51" result="blur" id="feGaussianBlur4200-3"/></filter><mask maskUnits="userSpaceOnUse" id="mask4216-0"><rect ry="40" y="-1325.6035" x="-451.93805" height="400.77808" width="300.05896" id="rect4218-5" style="opacity:1;fill:#ff3737;fill-opacity:1;fill-rule:nonzero;stroke:none;stroke-width:10;stroke-linecap:butt;stroke-linejoin:round;stroke-miterlimit:4;stroke-dasharray:none;stroke-dashoffset:0;stroke-opacity:1" transform="scale(-1,-1)"/></mask><filter colorInterpolationFilters="sRGB" id="filter4242-2"><feGaussianBlur stdDeviation="2.51 2.51" result="blur" id="feGaussianBlur4244-2"/></filter></defs><metadata id="metadata7"><rdf:RDF><cc:Work rdf:about=""><dc:format>image/svg+xml</dc:format><dc:type rdf:resource="http://purl.org/dc/dcmitype/StillImage"/><dc:title/></cc:Work></rdf:RDF></metadata><g id="layer1" transform="translate(0,-652.36216)"><rect style="opacity:1;fill:#1e1e1e;fill-opacity:1;fill-rule:nonzero;stroke:none;stroke-width:10;stroke-linecap:butt;stroke-linejoin:round;stroke-miterlimit:4;stroke-dasharray:none;stroke-dashoffset:0;stroke-opacity:1" id="rect4164" width="300.05896" height="400.77808" x="0" y="652.28351" ry="40"/><path transform="translate(-1.3432789e-7,-1.3368765e-6)" style="fill:#ffffff;fill-opacity:0.15686275;fill-rule:evenodd;stroke:none;stroke-width:1px;stroke-linecap:butt;stroke-linejoin:miter;stroke-opacity:1;filter:url(#filter4198-8)" d="M -4.7687833,775.07096 C -9.6501835,741.99485 -16.84552,674.23676 -1.2788716,652.0641 18.998297,625.94378 233.50094,631.63117 263.31435,653.90999 276.21398,662.64856 70.349579,663.12124 47.099353,691.74479 24.390958,719.11242 0.65060847,818.18718 -4.7687833,775.07096 Z" id="path4166" mask="url(#mask4222-0)"/><path id="path4221" d="m 151.73588,1025.0177 c -3.32683,-9.3138 -10.24843,-68.45389 5.31821,-90.62655 20.27717,-26.12032 219.43558,-16.45796 231.55506,-9.93184 11.07433,5.31702 -178.60366,0.0589 -204.85126,34.86646 -21.59349,30.0006 -26.50086,82.17843 -32.02201,65.69193 z" style="fill:#000000;fill-opacity:1;fill-rule:evenodd;stroke:none;stroke-width:1px;stroke-linecap:butt;stroke-linejoin:miter;stroke-opacity:1;filter:url(#filter4198-8)" transform="matrix(-1,0,0,-1,451.93806,1977.887)" mask="url(#mask4216-0)"/></g><g transform="translate(0, 0)"><defs id="defs4"><linearGradient id="linearGradient10055"><stop style="stop-color:#000000;stop-opacity:1;" offset="0" id="stop10057"/></linearGradient><marker orient="auto" refY="0" refX="0" id="Arrow1Lstart" style="overflow:visible"><path id="path4978" d="M 0,0 5,-5 -12.5,0 5,5 0,0 Z" style="fill:#000000;fill-opacity:1;fill-rule:evenodd;stroke:#ff5c00;stroke-width:1pt;stroke-opacity:1" transform="matrix(0.8,0,0,0.8,10,0)"/></marker><clipPath clipPathUnits="userSpaceOnUse" id="clipPath4243"><circle style="opacity:1;fill:#000000;fill-opacity:0.29670332;fill-rule:nonzero;stroke:#000000;stroke-width:19.13299942;stroke-linecap:butt;stroke-linejoin:round;stroke-miterlimit:4;stroke-dasharray:none;stroke-dashoffset:0;stroke-opacity:1" id="circle4245" cx="-264.65997" cy="-198.20665" r="293.95438"/></clipPath><clipPath clipPathUnits="userSpaceOnUse" id="clipPath7847"><ellipse style="opacity:1;fill:#822600;fill-opacity:1;fill-rule:nonzero;stroke:none;stroke-width:12;stroke-linecap:round;stroke-linejoin:round;stroke-miterlimit:4;stroke-dasharray:none;stroke-dashoffset:0;stroke-opacity:1" id="ellipse7849" cx="394" cy="552.36218" rx="349.49533" ry="216"/></clipPath><clipPath clipPathUnits="userSpaceOnUse" id="clipPath4243-1"><circle style="opacity:1;fill:#000000;fill-opacity:0.29670332;fill-rule:nonzero;stroke:#000000;stroke-width:19.13299942;stroke-linecap:butt;stroke-linejoin:round;stroke-miterlimit:4;stroke-dasharray:none;stroke-dashoffset:0;stroke-opacity:1" id="circle4245-4" cx="-264.65997" cy="-198.20665" r="293.95438"/></clipPath><clipPath clipPathUnits="userSpaceOnUse" id="clipPath7876"><circle style="opacity:1;fill:#000000;fill-opacity:0.29670332;fill-rule:nonzero;stroke:#000000;stroke-width:19.13299942;stroke-linecap:butt;stroke-linejoin:round;stroke-miterlimit:4;stroke-dasharray:none;stroke-dashoffset:0;stroke-opacity:1" id="circle7878" cx="-264.65997" cy="-198.20665" r="293.95438"/></clipPath><clipPath clipPathUnits="userSpaceOnUse" id="clipPath14693"><rect style="opacity:1;fill:#a53c3c;fill-opacity:1;fill-rule:nonzero;stroke:none;stroke-width:8;stroke-linecap:round;stroke-linejoin:round;stroke-miterlimit:4;stroke-dasharray:none;stroke-dashoffset:0;stroke-opacity:1" id="rect14695" width="131.78395" height="168.82127" x="-332.59583" y="383.49765" rx="1.2551664" ry="3.7514515" transform="matrix(0.99939083,-0.03489951,0.03489951,0.99939083,0,0)"/></clipPath><clipPath clipPathUnits="userSpaceOnUse" id="clipPath14952"><ellipse style="opacity:1;fill:#a53c3c;fill-opacity:1;fill-rule:nonzero;stroke:none;stroke-width:7;stroke-linecap:round;stroke-linejoin:round;stroke-miterlimit:4;stroke-dasharray:none;stroke-dashoffset:0;stroke-opacity:1" id="ellipse14954" cx="-271.34384" cy="647.25604" rx="69.057365" ry="116.91089" transform="matrix(0.99939083,-0.03489951,0.03489951,0.99939083,0,0)"/></clipPath><pattern y="0" x="0" height="6" width="6" patternUnits="userSpaceOnUse" id="EMFhbasepattern"/></defs><metadata id="metadata7"><rdf:RDF><cc:Work rdf:about=""><dc:format>image/svg+xml</dc:format><dc:type rdf:resource="http://purl.org/dc/dcmitype/StillImage"/><dc:title/></cc:Work></rdf:RDF></metadata><g id="layer1" transform="translate(0,-652.36216)"><g id="g4360" transform="matrix(0.76584228,0,0,0.76584228,512.08203,489.6579)"><circle r="107.56709" cy="341.25565" cx="-472.78326" id="path15137" style="opacity:1;fill:#000000;fill-opacity:1;fill-rule:nonzero;stroke:#ffffff;stroke-width:17.21711159;stroke-linecap:butt;stroke-linejoin:round;stroke-miterlimit:4;stroke-dasharray:none;stroke-dashoffset:0;stroke-opacity:1"/><circle r="87.813393" cy="341.62653" cx="-472.78326" id="path15137-2" style="opacity:1;fill:#ffffff;fill-opacity:1;fill-rule:nonzero;stroke:none;stroke-width:0;stroke-linecap:butt;stroke-linejoin:round;stroke-miterlimit:4;stroke-dasharray:none;stroke-dashoffset:0;stroke-opacity:0"/><g transform="matrix(0.10477442,0,0,0.08587532,-506.32882,359.1076)" id="g4247"><path id="circle15184" style="opacity:1;fill:none;fill-opacity:1;fill-rule:nonzero;stroke:#000000;stroke-width:125.71019745;stroke-linecap:round;stroke-linejoin:round;stroke-miterlimit:4;stroke-dasharray:none;stroke-dashoffset:0;stroke-opacity:1" mask="none" d="m -93.329197,-74.125463 a 163.9187,163.9187 0 0 1 -224.595053,-13.081173 163.9187,163.9187 0 0 1 0,-224.975674 163.9187,163.9187 0 0 1 224.595055,-13.08117"/></g><use height="100%" width="100%" transform="matrix(0.5,-0.8660254,0.8660254,0.5,-532.66673,-238.47425)" id="use4252" xlink:href="#g4247" y="0" x="0"/><use height="100%" width="100%" transform="matrix(0.5,-0.8660254,0.8660254,0.5,-533.74838,-239.03721)" id="use4254" xlink:href="#use4252" y="0" x="0"/><use height="100%" width="100%" transform="matrix(0.5,-0.8660254,0.8660254,0.5,-533.74838,-239.03721)" id="use4256" xlink:href="#use4254" y="0" x="0"/><use height="100%" width="100%" transform="matrix(0.5,-0.8660254,0.8660254,0.5,-533.74838,-239.03721)" id="use4258" xlink:href="#use4256" y="0" x="0"/><use height="100%" width="100%" transform="matrix(0.5,-0.8660254,0.8660254,0.5,-533.74838,-239.03721)" id="use4260" xlink:href="#use4258" y="0" x="0"/><circle r="18.188499" cy="341.51578" cx="-472.93054" id="path15154-5" style="opacity:1;fill:none;fill-opacity:1;fill-rule:nonzero;stroke:#000000;stroke-width:12.28584385;stroke-linecap:butt;stroke-linejoin:round;stroke-miterlimit:4;stroke-dasharray:none;stroke-dashoffset:0;stroke-opacity:1"/></g><g transform="matrix(0.76584228,0,0,0.76584228,512.08203,692.1579)" id="g4206"><circle style="opacity:1;fill:#000000;fill-opacity:1;fill-rule:nonzero;stroke:#ffffff;stroke-width:17.21711159;stroke-linecap:butt;stroke-linejoin:round;stroke-miterlimit:4;stroke-dasharray:none;stroke-dashoffset:0;stroke-opacity:1" id="circle4208" cx="-472.78326" cy="341.25565" r="107.56709"/><circle style="opacity:1;fill:#ffffff;fill-opacity:1;fill-rule:nonzero;stroke:none;stroke-width:0;stroke-linecap:butt;stroke-linejoin:round;stroke-miterlimit:4;stroke-dasharray:none;stroke-dashoffset:0;stroke-opacity:0" id="circle4210" cx="-472.78326" cy="341.62653" r="87.813393"/><g id="g4212" transform="matrix(0.10477442,0,0,0.08587532,-506.32882,359.1076)"><path d="m -93.329197,-74.125463 a 163.9187,163.9187 0 0 1 -224.595053,-13.081173 163.9187,163.9187 0 0 1 0,-224.975674 163.9187,163.9187 0 0 1 224.595055,-13.08117" mask="none" style="opacity:1;fill:none;fill-opacity:1;fill-rule:nonzero;stroke:#000000;stroke-width:125.71019745;stroke-linecap:round;stroke-linejoin:round;stroke-miterlimit:4;stroke-dasharray:none;stroke-dashoffset:0;stroke-opacity:1" id="path4214"/></g><use x="0" y="0" xlink:href="#g4247" id="use4216" transform="matrix(0.5,-0.8660254,0.8660254,0.5,-532.66673,-238.47425)" width="100%" height="100%"/><use x="0" y="0" xlink:href="#use4252" id="use4218" transform="matrix(0.5,-0.8660254,0.8660254,0.5,-533.74838,-239.03721)" width="100%" height="100%"/><use x="0" y="0" xlink:href="#use4254" id="use4220" transform="matrix(0.5,-0.8660254,0.8660254,0.5,-533.74838,-239.03721)" width="100%" height="100%"/><use x="0" y="0" xlink:href="#use4256" id="use4222" transform="matrix(0.5,-0.8660254,0.8660254,0.5,-533.74838,-239.03721)" width="100%" height="100%"/><use x="0" y="0" xlink:href="#use4258" id="use4224" transform="matrix(0.5,-0.8660254,0.8660254,0.5,-533.74838,-239.03721)" width="100%" height="100%"/><circle style="opacity:1;fill:none;fill-opacity:1;fill-rule:nonzero;stroke:#000000;stroke-width:12.28584385;stroke-linecap:butt;stroke-linejoin:round;stroke-miterlimit:4;stroke-dasharray:none;stroke-dashoffset:0;stroke-opacity:1" id="circle4226" cx="-472.93054" cy="341.51578" r="18.188499"/></g></g></g></svg>